<?xml version="1.0" standalone="no"?>
<!DOCTYPE svg PUBLIC "-//W3C//DTD SVG 20010904//EN"
 "http://www.w3.org/TR/2001/REC-SVG-20010904/DTD/svg10.dtd">
<svg version="1.0" xmlns="http://www.w3.org/2000/svg"
 width="300.000000pt" height="277.000000pt" viewBox="0 0 300.000000 277.000000"
 preserveAspectRatio="xMidYMid meet">
<metadata>
Created by potrace 1.10, written by Peter Selinger 2001-2011
</metadata>
<g transform="translate(0.000000,277.000000) scale(0.100000,-0.100000)"
fill="#000000" stroke="none">
<path d="M1180 2035 l-305 -123 -3 -239 -2 -239 227 -160 228 -159 6 -200 c4
-110 5 -202 4 -203 -5 -5 -162 114 -208 157 -43 40 -87 118 -87 154 0 17 -16
34 -64 65 -35 24 -71 51 -81 62 -10 11 -21 18 -24 16 -4 -3 -3 -50 0 -105 6
-83 13 -113 37 -166 43 -91 100 -147 296 -292 94 -69 197 -145 229 -169 31
-24 60 -44 65 -44 4 0 6 166 4 370 -2 309 -5 370 -16 370 -19 0 -73 46 -88 74
-6 11 -14 33 -17 48 -5 21 -40 51 -165 137 -87 61 -162 112 -167 113 -4 2 -9
68 -10 148 l-1 145 123 50 c68 28 134 56 147 63 12 7 22 9 23 5 0 -4 0 -110
-1 -235 -1 -224 -1 -226 22 -242 28 -20 38 -20 38 -1 0 19 66 92 91 100 18 6
19 19 19 316 0 170 -3 309 -7 308 -5 -1 -145 -56 -313 -124z m285 52 c3 -12 5
-134 3 -270 l-3 -247 -38 -35 c-21 -19 -42 -35 -48 -35 -5 0 -10 42 -10 93 -1
50 -2 141 -3 200 -1 101 -3 110 -24 127 -22 18 -30 18 -69 3 -10 -3 -20 -7
-23 -7 -3 -1 -26 -10 -50 -20 -100 -43 -126 -54 -146 -60 -44 -13 -56 -60 -53
-198 5 -151 -2 -141 168 -255 150 -101 170 -119 193 -173 18 -42 71 -103 81
-93 3 2 10 -11 15 -29 10 -30 8 -605 -1 -615 -4 -3 -102 61 -187 124 -25 18
-50 37 -55 41 -215 157 -258 205 -293 328 -20 72 -15 123 10 108 47 -27 66
-48 78 -86 7 -24 20 -50 27 -59 7 -8 13 -20 13 -25 0 -17 91 -100 174 -159
135 -95 148 -78 144 184 -2 137 -6 185 -15 189 -7 2 -13 9 -13 15 0 7 -39 39
-86 72 -316 222 -335 236 -343 257 -4 11 -8 106 -9 212 -2 142 1 196 10 208 7
9 45 28 83 43 39 15 88 37 110 48 22 11 41 19 43 18 2 -2 132 48 177 69 27 13
118 48 127 49 4 1 10 -9 13 -22z"/>
<path d="M1590 1852 c0 -298 1 -311 19 -317 27 -8 91 -81 91 -104 0 -14 51
-53 175 -137 l175 -118 0 -90 c-1 -141 -19 -170 -203 -309 -48 -37 -90 -67
-93 -67 -3 0 -4 116 -3 259 3 207 1 262 -10 275 -19 23 -25 20 -40 -19 -12
-35 -75 -95 -98 -95 -10 0 -13 -82 -15 -370 -2 -204 0 -370 4 -370 5 0 34 20
65 43 32 24 92 69 133 99 226 165 269 199 313 247 27 28 63 82 80 119 31 65
32 72 35 217 l2 150 -226 149 c-150 99 -229 157 -235 173 -5 13 -9 94 -9 180
0 120 3 154 13 149 6 -3 77 -31 155 -63 l144 -58 -4 -76 -3 -75 84 -57 c46
-32 84 -56 85 -55 1 2 0 90 -2 196 -2 123 -7 192 -13 192 -11 0 -126 44 -419
162 -96 39 -181 72 -187 75 -10 4 -13 -61 -13 -305z m290 166 c283 -110 283
-110 301 -125 13 -11 16 -35 14 -148 -1 -74 -5 -138 -8 -142 -10 -10 -74 28
-86 51 -6 12 -13 46 -16 76 -8 79 -11 85 -58 105 -23 10 -62 26 -86 37 -137
60 -179 70 -200 44 -8 -9 -12 -68 -12 -175 0 -145 2 -164 19 -188 11 -16 86
-71 166 -123 81 -52 175 -115 209 -140 l62 -46 0 -135 c0 -131 -1 -136 -32
-199 -51 -103 -92 -143 -274 -272 -13 -9 -71 -51 -129 -92 -57 -42 -108 -76
-112 -76 -10 0 -9 -21 -14 325 l-4 290 46 43 c26 23 50 42 53 42 3 0 5 -98 3
-219 -2 -199 -1 -220 16 -241 l18 -22 44 22 c43 22 152 101 202 148 44 41 80
128 83 205 4 81 -6 121 -37 147 -13 11 -81 59 -153 107 -124 82 -175 126 -175
148 0 6 -23 33 -50 62 l-50 52 0 259 c0 142 3 262 7 265 9 10 21 6 253 -85z"/>
<path d="M1870 1660 c-11 -11 -20 -29 -20 -39 0 -28 32 -62 60 -63 15 -1 112
-65 238 -156 177 -128 212 -157 212 -178 0 -16 8 -28 24 -35 34 -16 66 3 66
40 0 35 -21 54 -53 49 -18 -2 -73 32 -212 131 -239 172 -234 168 -214 176 11
4 66 -29 165 -99 l149 -106 81 0 c64 0 83 -3 88 -15 12 -33 86 -7 86 31 0 15
-35 54 -49 54 -4 0 -20 -9 -34 -20 -20 -16 -40 -20 -97 -20 l-71 0 -132 94
c-73 51 -142 98 -154 105 -13 6 -23 18 -23 25 0 21 -34 46 -63 46 -15 0 -36
-9 -47 -20z m78 -42 c4 -33 -31 -49 -55 -25 -24 24 -8 59 25 55 21 -2 28 -9
30 -30z"/>
<path d="M645 1500 c-15 -16 -17 -26 -9 -48 8 -22 16 -27 42 -28 30 0 77 -32
389 -261 48 -35 67 -63 43 -63 -6 0 -76 47 -156 105 l-145 105 -77 0 c-65 0
-80 3 -95 20 -23 27 -53 25 -73 -5 -15 -23 -15 -27 0 -50 20 -30 50 -32 73 -5
14 16 30 20 85 20 l67 0 153 -111 c84 -61 157 -118 162 -127 34 -66 126 -50
126 21 0 34 -32 67 -64 67 -16 0 -82 42 -183 118 -87 65 -179 133 -205 152
-32 22 -48 41 -48 55 0 25 -29 55 -52 55 -8 0 -23 -9 -33 -20z m543 -399 c21
-13 11 -55 -14 -59 -30 -4 -48 21 -34 47 11 22 27 26 48 12z"/>
<path d="M1510 1487 c-29 -15 -50 -51 -50 -89 0 -16 -5 -28 -10 -28 -7 0 -10
-32 -8 -87 l3 -88 94 -3 c60 -2 98 1 107 9 21 17 20 157 -1 165 -8 4 -15 17
-15 29 0 44 -19 76 -55 90 -41 18 -34 18 -65 2z m78 -60 c21 -45 10 -59 -45
-55 -46 3 -48 4 -46 31 3 39 21 59 52 55 17 -2 31 -13 39 -31z m42 -127 c0
-47 -8 -70 -25 -70 -16 0 -26 99 -12 118 16 21 37 -6 37 -48z m-129 27 c-6 -6
-11 -29 -11 -51 0 -30 -3 -37 -10 -26 -9 14 -11 78 -3 92 2 4 11 4 19 1 11 -4
12 -9 5 -16z m63 -47 c-1 -39 -4 -45 -24 -48 -19 -3 -22 0 -17 20 4 13 2 30
-3 38 -11 18 7 42 29 38 12 -3 16 -15 15 -48z"/>
</g>
</svg>
